<?xml version="1.0" encoding="UTF-8"?>
<svg width="79px" height="65px" viewBox="0 0 79 65" version="1.1" xmlns="http://www.w3.org/2000/svg" xmlns:xlink="http://www.w3.org/1999/xlink">
    <!-- Generator: Sketch 45.2 (43514) - http://www.bohemiancoding.com/sketch -->
    <title>Whapow_Logo_Wortmarke-Bildmarke-Claim_RGB</title>
    <desc>Created with Sketch.</desc>
    <defs>
        <polygon id="path-1" points="6.87949626 3.57036921 0.177086015 3.57036921 0.177086015 0.000716222509 6.87949626 0.000716222509"></polygon>
    </defs>
    <g id="Page-1" stroke="none" stroke-width="1" fill="none" fill-rule="evenodd">
        <g id="Artboard" transform="translate(-961.000000, -153.000000)">
            <g id="Whapow_Logo_Wortmarke-Bildmarke-Claim_RGB" transform="translate(961.000000, 153.000000)">
                <path d="M19.982608,63.6952793 C19.622169,64.1533036 19.09109,64.4211708 18.5259905,64.4211708 C17.5956174,64.4211708 16.728451,63.6367281 16.728451,62.6673209 C16.728451,61.7661339 17.5078802,60.9184846 18.5259905,60.9184846 C19.1252897,60.9184846 19.6173345,61.1915444 19.8656847,61.5276318 L19.3346057,61.956112 C19.1104281,61.6979137 18.8475744,61.5129493 18.5259905,61.5129493 C18.0047596,61.5129493 17.449329,62.0243322 17.449329,62.6673209 C17.449329,63.3203368 17.9220359,63.8267061 18.5259905,63.8267061 C18.8133748,63.8267061 19.09109,63.6952793 19.2907371,63.4807706 L19.2907371,62.9548842 L18.4529358,62.9548842 L18.4529358,62.3799366 L19.982608,62.3799366 L19.982608,63.6952793" id="Fill-1" fill="#000105"></path>
                <path d="M22.0367342,62.3994537 L22.7432877,62.3994537 C23.069527,62.3994537 23.2353325,62.2630133 23.2353325,61.975629 C23.2353325,61.7077618 23.059858,61.5518044 22.7286051,61.5518044 L22.0367342,61.5518044 L22.0367342,62.3994537 Z M22.7286051,60.9772148 C23.4152834,60.9772148 23.9270244,61.3716744 23.9270244,61.975629 C23.9270244,62.4239843 23.619944,62.7649062 23.2740086,62.9160292 L24.0292652,64.3627986 L23.2546705,64.3627986 L22.5386271,62.9744013 L22.0367342,62.9744013 L22.0367342,64.3627986 L21.3450423,64.3627986 L21.3450423,60.9772148 L22.7286051,60.9772148 L22.7286051,60.9772148 Z" id="Fill-2" fill="#000105"></path>
                <polyline id="Fill-3" fill="#000105" points="26.0026373 61.5518044 26.0026373 62.3509296 27.3228144 62.3509296 27.3228144 62.9255191 26.0026373 62.9255191 26.0026373 63.787851 27.6297157 63.787851 27.6297157 64.3627986 25.3010973 64.3627986 25.3010973 60.9772148 27.6053642 60.9772148 27.6053642 61.5518044 26.0026373 61.5518044"></polyline>
                <g id="Group-7" transform="translate(28.827956, 60.878913)">
                    <mask id="mask-2" fill="white">
                        <use xlink:href="#path-1"></use>
                    </mask>
                    <g id="Clip-5"></g>
                    <polyline id="Fill-4" fill="#000105" mask="url(#mask-2)" points="0.878625964 0.672891048 0.878625964 1.47201631 2.1988031 1.47201631 2.1988031 2.04660582 0.878625964 2.04660582 0.878625964 2.90893772 2.50570445 2.90893772 2.50570445 3.48388534 0.177086015 3.48388534 0.177086015 0.0983015394 2.48135288 0.0983015394 2.48135288 0.672891048 0.878625964 0.672891048"></polyline>
                    <polyline id="Fill-6" fill="#000105" mask="url(#mask-2)" points="6.17813537 0.0983015394 6.87949626 0.0983015394 6.87949626 3.58111255 4.59474645 1.49153338 4.59474645 3.48388534 3.89338556 3.48388534 3.89338556 0.000716222509 6.17813537 2.09065351 6.17813537 0.0983015394"></polyline>
                </g>
                <polyline id="Fill-8" fill="#000105" points="37.8863802 61.5518044 37.8863802 62.3509296 39.2065573 62.3509296 39.2065573 62.9255191 37.8863802 62.9255191 37.8863802 63.787851 39.5134587 63.787851 39.5134587 64.3627986 37.1848402 64.3627986 37.1848402 60.9772148 39.4891071 60.9772148 39.4891071 61.5518044 37.8863802 61.5518044"></polyline>
                <path d="M41.5804768,62.3994537 L42.2868513,62.3994537 C42.6132697,62.3994537 42.7788962,62.2630133 42.7788962,61.975629 C42.7788962,61.7077618 42.6036007,61.5518044 42.2721687,61.5518044 L41.5804768,61.5518044 L41.5804768,62.3994537 Z M42.2721687,60.9772148 C42.9592052,60.9772148 43.470588,61.3716744 43.470588,61.975629 C43.470588,62.4239843 43.1636867,62.7649062 42.8179303,62.9160292 L43.5730079,64.3627986 L42.7982342,64.3627986 L42.0821907,62.9744013 L41.5804768,62.9744013 L41.5804768,64.3627986 L40.8886059,64.3627986 L40.8886059,60.9772148 L42.2721687,60.9772148 L42.2721687,60.9772148 Z" id="Fill-9" fill="#000105"></path>
                <path d="M47.8379339,63.6952793 C47.4773158,64.1533036 46.9462368,64.4211708 46.3813163,64.4211708 C45.4507642,64.4211708 44.5837769,63.6367281 44.5837769,62.6673209 C44.5837769,61.7661339 45.363206,60.9184846 46.3813163,60.9184846 C46.9804365,60.9184846 47.4724813,61.1915444 47.7210105,61.5276318 L47.1899315,61.956112 C46.9659329,61.6979137 46.7027212,61.5129493 46.3813163,61.5129493 C45.8600854,61.5129493 45.3048339,62.0243322 45.3048339,62.6673209 C45.3048339,63.3203368 45.7771826,63.8267061 46.3813163,63.8267061 C46.6687006,63.8267061 46.9462368,63.6952793 47.146242,63.4807706 L47.146242,62.9548842 L46.3082616,62.9548842 L46.3082616,62.3799366 L47.8379339,62.3799366 L47.8379339,63.6952793" id="Fill-10" fill="#000105"></path>
                <polygon id="Fill-11" fill="#000105" points="49.2154088 64.3627986 49.9364658 64.3627986 49.9364658 60.9772148 49.2154088 60.9772148"></polygon>
                <polyline id="Fill-12" fill="#000105" points="53.799591 63.787851 53.799591 64.3627986 51.0664859 64.3627986 52.7424465 61.5518044 51.1395406 61.5518044 51.1395406 60.9772148 53.80926 60.9772148 52.1384919 63.787851 53.799591 63.787851"></polyline>
                <polyline id="Fill-13" fill="#000105" points="55.6993712 61.5518044 55.6993712 62.3509296 57.0195483 62.3509296 57.0195483 62.9255191 55.6993712 62.9255191 55.6993712 63.787851 57.3264497 63.787851 57.3264497 64.3627986 54.9978312 64.3627986 54.9978312 60.9772148 57.3020981 60.9772148 57.3020981 61.5518044 55.6993712 61.5518044"></polyline>
                <path d="M59.3936469,62.3994537 L60.1000213,62.3994537 C60.4266188,62.3994537 60.5920662,62.2630133 60.5920662,61.975629 C60.5920662,61.7077618 60.4167707,61.5518044 60.0853388,61.5518044 L59.3936469,61.5518044 L59.3936469,62.3994537 Z M60.0853388,60.9772148 C60.7723752,60.9772148 61.2839371,61.3716744 61.2839371,61.975629 C61.2839371,62.4239843 60.9770358,62.7649062 60.6311003,62.9160292 L61.3861779,64.3627986 L60.6115833,64.3627986 L59.8955398,62.9744013 L59.3936469,62.9744013 L59.3936469,64.3627986 L58.701955,64.3627986 L58.701955,60.9772148 L60.0853388,60.9772148 L60.0853388,60.9772148 Z" id="Fill-14" fill="#000105"></path>
                <polyline id="Fill-15" fill="#000105" points="7.67128024 46.1361892 4.98258094 51.1185911 0 40.6715905 2.25019207 40.6715905 5.18724152 47.2028235 6.69220407 44.3536904 4.70504472 40.6715905 6.66301801 40.6715905 7.65659768 42.5418265 8.65017736 40.6715905 10.6081506 40.6715905 8.62081224 44.3536904 10.1406364 47.2028235 13.0775068 40.6715905 15.3275198 40.6715905 10.3596214 51.1185911 7.67128024 46.1361892"></polyline>
                <polyline id="Fill-16" fill="#000105" points="24.5216682 50.8265513 24.5216682 46.6037034 19.8606711 46.6037034 19.8606711 50.8265513 17.7565885 50.8265513 17.7565885 40.6715905 19.8606711 40.6715905 19.8606711 44.8797558 24.5216682 44.8797558 24.5216682 40.6715905 26.6257508 40.6715905 26.6257508 50.8265513 24.5216682 50.8265513"></polyline>
                <path d="M34.0640797,44.39738 L32.9535767,46.9544734 L35.1599002,46.9544734 L34.0640797,44.39738 Z M32.2230298,48.6202279 L31.2586361,50.8265513 L29.0376301,50.8265513 L34.0640797,40.3791926 L39.0466607,50.8265513 L36.8256547,50.8265513 L35.8757646,48.6202279 L32.2230298,48.6202279 L32.2230298,48.6202279 Z" id="Fill-17" fill="#000105"></path>
                <path d="M43.5363015,44.938128 L45.231063,44.938128 C46.0640298,44.938128 46.6776534,44.5141242 46.6776534,43.666833 C46.6776534,42.7901767 46.1370844,42.3955381 45.231063,42.3955381 L43.5363015,42.3955381 L43.5363015,44.938128 Z M45.3334828,40.6715905 C47.2329049,40.6715905 48.8402873,41.9133413 48.8402873,43.666833 C48.8402873,45.3762771 47.3643317,46.6622546 45.3334828,46.6622546 L43.5363015,46.6622546 L43.5363015,50.8265513 L41.4322188,50.8265513 L41.4322188,40.6715905 L45.3334828,40.6715905 L45.3334828,40.6715905 Z" id="Fill-18" fill="#000105"></path>
                <path d="M53.10772,45.7417296 C53.10772,47.7582541 54.5104418,49.219348 56.2637545,49.219348 C57.8856404,49.219348 59.4199681,47.7725785 59.4199681,45.7417296 C59.4199681,43.8861762 57.9440125,42.2787938 56.2637545,42.2787938 C54.5688139,42.2787938 53.10772,43.6961981 53.10772,45.7417296 Z M61.5824229,45.7417296 C61.5824229,48.5618558 59.4344716,51.0018468 56.2637545,51.0018468 C53.1805957,51.0018468 50.9450862,48.707607 50.9450862,45.7417296 C50.9450862,42.7901767 53.0344863,40.4959369 56.2637545,40.4959369 C59.2153075,40.4959369 61.5824229,42.7316255 61.5824229,45.7417296 L61.5824229,45.7417296 Z" id="Fill-19" fill="#000105"></path>
                <polyline id="Fill-20" fill="#000105" points="70.4580313 46.1361892 67.769332 51.1185911 62.7869301 40.6715905 65.0371221 40.6715905 67.9739925 47.2028235 69.4789551 44.3536904 67.4919748 40.6715905 69.449769 40.6715905 70.4433487 42.5418265 71.4371074 40.6715905 73.3949017 40.6715905 71.4079214 44.3536904 72.9273874 47.2028235 75.8642578 40.6715905 78.1146289 40.6715905 73.1465515 51.1185911 70.4580313 46.1361892"></polyline>
                <polyline id="Fill-21" fill="#000105" points="40.1385419 10.2187047 37.9760871 10.2187047 37.9760871 19.2887675 28.9060243 19.2887675 28.9060243 21.4512223 37.9760871 21.4512223 37.9760871 30.521106 40.1385419 30.521106 40.1385419 21.4512223 49.2084256 21.4512223 49.2084256 19.2887675 40.1385419 19.2887675 40.1385419 10.2187047"></polyline>
                <path d="M49.2086047,0.069652639 C44.516452,0.069652639 41.7303464,1.9853688 40.219475,3.59257211 C39.7421127,4.10001576 39.3616195,4.60871279 39.057404,5.07909193 C38.7531885,4.60871279 38.3725162,4.10001576 37.895333,3.59257211 C36.3844616,1.9853688 33.598356,0.069652639 28.9063824,0.069652639 L2.24410418,0.0673249159 L2.5216404,1.37353572 C2.56461375,1.57568952 3.60295733,6.38028917 6.15843925,11.2611665 C9.64877059,17.9275866 14.304575,21.4514013 19.622169,21.4514013 L26.2026424,21.4514013 L26.2026424,19.2887675 L19.622169,19.2887675 C10.4206794,19.2887675 6.12477679,6.42773891 4.96843555,2.23031689 L28.9062033,2.23228651 C35.3695743,2.23228651 37.4525284,6.35164027 37.9119852,7.51585996 L40.2049715,7.51585996 C40.6678303,6.36435322 42.7780009,2.23228651 49.2087837,2.23228651 L73.1460143,2.23031689 C71.989315,6.42881325 67.6932333,19.2887675 58.4924599,19.2887675 L51.9118075,19.2887675 L51.9118075,21.4514013 L58.4924599,21.4514013 C63.810233,21.4514013 68.4656793,17.9275866 71.9561897,11.2611665 C74.5114926,6.38028917 75.5500152,1.57568952 75.5928095,1.37353572 L75.8705248,0.0673249159 L49.2086047,0.069652639" id="Fill-22" fill="#000105"></path>
            </g>
        </g>
    </g>
</svg>