<?xml version="1.0" encoding="utf-8"?>
<!-- Generator: Adobe Illustrator 19.1.0, SVG Export Plug-In . SVG Version: 6.00 Build 0)  -->
<svg version="1.1" id="Whapow_x5F_Brandtool_x5F_Seacon"
	 xmlns="http://www.w3.org/2000/svg" xmlns:xlink="http://www.w3.org/1999/xlink" x="0px" y="0px" viewBox="0 0 260.4 117.5"
	 style="enable-background:new 0 0 260.4 117.5;" xml:space="preserve">
<g>
	<polygon fill="#000" points="260.4,0 260.4,0 223.2,30 186,0 148.8,30 111.6,0 74.4,30 74.4,58.8 111.6,28.8 148.8,58.8 186,28.8 
		223.2,58.8 260.4,28.8 	"/>
	<polygon fill="#000" points="260.4,58.8 260.4,58.8 223.2,88.7 186,58.8 148.8,88.7 111.6,58.8 74.4,88.7 37.2,58.8 0,88.7 0,88.7 
		0,117.5 0,117.5 37.2,87.6 74.4,117.5 111.6,87.6 148.8,117.5 186,87.6 223.2,117.5 260.4,87.6 	"/>
</g>
</svg>
